<svg width="207" height="65" viewBox="0 0 207 65" fill="none" xmlns="http://www.w3.org/2000/svg">
<path fill-rule="evenodd" clip-rule="evenodd" d="M46.3203 33.75C52.6716 33.75 57.8203 38.8987 57.8203 45.25C57.8203 51.6013 52.6716 56.75 46.3203 56.75C39.969 56.75 34.8203 51.6013 34.8203 45.25C34.8203 38.8987 39.969 33.75 46.3203 33.75ZM52.8203 45.25C52.8203 48.8399 49.9102 51.75 46.3203 51.75V54.749C47.5678 54.749 48.8035 54.5038 49.9561 54.0264C51.1085 53.549 52.156 52.8489 53.0381 51.9668C53.92 51.0848 54.6193 50.0371 55.0967 48.8848C55.574 47.7323 55.8203 46.4974 55.8203 45.25H52.8203ZM46.3203 45.25V49.75C48.8056 49.75 50.8203 47.7353 50.8203 45.25H46.3203ZM46.3203 35.751C45.0728 35.751 43.8371 35.9962 42.6846 36.4736C41.5321 36.951 40.4846 37.6511 39.6025 38.5332C38.7206 39.4152 38.0213 40.4629 37.5439 41.6152C37.0666 42.7677 36.8203 44.0026 36.8203 45.25H39.8203L39.8291 44.915C39.9978 41.5918 42.6621 38.9275 45.9854 38.7588L46.3203 38.75V35.751ZM46.3203 40.75C43.835 40.75 41.8203 42.7647 41.8203 45.25H46.3203V40.75Z" fill="url(#paint0_linear_3_160)"/>
<path d="M58 11.75V33.5957C55.0131 30.6023 50.8831 28.75 46.3203 28.75C37.2076 28.75 29.8203 36.1373 29.8203 45.25C29.8203 49.7224 31.6008 53.7781 34.4902 56.75H4V41.75H22V26.75H40V11.75H58Z" fill="url(#paint1_linear_3_160)"/>
<path d="M94.1602 25.9521C95.9841 25.9522 97.6484 26.2563 99.1523 26.8643C100.656 27.4722 102.032 28.3837 103.28 29.5996L98 34.8799C97.5201 34.4 96.9601 34.0482 96.3203 33.8242C95.7123 33.5682 94.9921 33.4404 94.1602 33.4404C93.2642 33.4404 92.4479 33.6485 91.7119 34.0645C91.008 34.4484 90.4323 34.9924 89.9844 35.6963C89.5684 36.4003 89.3604 37.2483 89.3604 38.2402C89.3604 39.2001 89.5684 40.0482 89.9844 40.7842C90.4323 41.488 91.0081 42.0479 91.7119 42.4639C92.4479 42.8799 93.2642 43.0879 94.1602 43.0879C95.056 43.0879 95.8239 42.9442 96.4639 42.6562C97.1037 42.3683 97.6636 41.952 98.1436 41.4082L103.472 46.6885C102.16 47.9683 100.736 48.9284 99.2002 49.5684C97.6963 50.2083 95.9843 50.5283 94.0645 50.5283C91.5685 50.5283 89.3119 50.0003 87.2959 48.9443C85.3119 47.8883 83.7438 46.4322 82.5918 44.5762C81.4398 42.7202 80.8643 40.6241 80.8643 38.2881C80.8643 35.9202 81.4399 33.8081 82.5918 31.9521C83.7758 30.0962 85.3598 28.64 87.3438 27.584C89.3597 26.496 91.6322 25.9521 94.1602 25.9521Z" fill="#F3F4F6"/>
<path fill-rule="evenodd" clip-rule="evenodd" d="M180.498 25.9521C182.866 25.9521 184.962 26.4643 186.786 27.4883C188.642 28.4803 190.082 29.8721 191.106 31.6641C192.162 33.424 192.69 35.44 192.69 37.7119C192.69 38.1919 192.658 38.6882 192.594 39.2002C192.562 39.6801 192.466 40.24 192.306 40.8799L175.841 40.9551C175.924 41.2136 176.02 41.4608 176.13 41.6963C176.578 42.6241 177.218 43.3276 178.05 43.8076C178.882 44.2876 179.906 44.5283 181.122 44.5283C182.274 44.5283 183.282 44.3361 184.146 43.9521C185.042 43.5681 185.842 42.9757 186.546 42.1758L190.914 46.5439C189.762 47.8558 188.354 48.8475 186.69 49.5195C185.058 50.1915 183.202 50.5283 181.122 50.5283C178.498 50.5283 176.178 50.0162 174.162 48.9922C172.146 47.9362 170.562 46.48 169.41 44.624C168.258 42.7681 167.683 40.6401 167.683 38.2402C167.683 35.8722 168.242 33.7761 169.362 31.9521C170.482 30.0962 172.002 28.64 173.922 27.584C175.874 26.496 178.066 25.9522 180.498 25.9521ZM180.594 31.9521C179.538 31.9522 178.626 32.2079 177.858 32.7197C177.09 33.2317 176.498 33.9519 176.082 34.8799C175.985 35.0974 175.9 35.3259 175.825 35.5645L184.967 35.4893C184.886 35.1645 184.789 34.8648 184.674 34.5918C184.322 33.7279 183.81 33.072 183.138 32.624C182.466 32.1762 181.618 31.9521 180.594 31.9521Z" fill="#F3F4F6"/>
<path fill-rule="evenodd" clip-rule="evenodd" d="M133.704 26.0479C135.176 26.0479 136.52 26.3204 137.735 26.8643C138.495 27.1841 139.167 27.5913 139.752 28.0859V26.5283H147.96V50H139.752V48.4189C139.167 48.9087 138.495 49.3242 137.735 49.6641C136.52 50.2079 135.176 50.4804 133.704 50.4805C131.528 50.4805 129.591 49.9525 127.896 48.8965C126.2 47.8405 124.872 46.4 123.912 44.5762C122.952 42.7202 122.472 40.6241 122.472 38.2881C122.472 35.9201 122.952 33.8081 123.912 31.9521C124.872 30.0962 126.2 28.6558 127.896 27.6318C129.592 26.5758 131.528 26.0479 133.704 26.0479ZM135.527 33.4883C134.632 33.4883 133.832 33.6964 133.128 34.1123C132.456 34.5283 131.912 35.104 131.496 35.8398C131.112 36.5438 130.92 37.3442 130.92 38.2402C130.92 39.1681 131.112 40.0004 131.496 40.7363C131.88 41.4401 132.424 42.0001 133.128 42.416C133.832 42.8319 134.616 43.04 135.479 43.04C136.855 43.04 137.96 42.5923 138.792 41.6963C139.656 40.8003 140.088 39.6481 140.088 38.2402C140.088 37.3122 139.896 36.496 139.512 35.792C139.128 35.0881 138.584 34.5283 137.88 34.1123C137.208 33.6963 136.423 33.4883 135.527 33.4883Z" fill="#F3F4F6"/>
<path d="M119.359 26.0479C120.479 26.0479 121.439 26.1925 122.239 26.4805C123.071 26.7685 123.775 27.2164 124.351 27.8242L119.503 34.3037C119.247 34.0158 118.878 33.7918 118.398 33.6318C117.951 33.44 117.439 33.3438 116.863 33.3438C115.776 33.3438 114.927 33.6799 114.319 34.3516C113.711 34.9916 113.407 35.9524 113.407 37.2324V50H105.055V26.5283H113.407V28.0244C114.937 26.7077 116.921 26.0479 119.359 26.0479Z" fill="#F3F4F6"/>
<path d="M162.962 26.5283H168.146V33.4883H162.962V50H154.609V33.4883H149.426V26.5283H154.609V16.832H162.962V26.5283Z" fill="#F3F4F6"/>
<path d="M199.3 50.528C197.892 50.528 196.74 50.064 195.844 49.136C194.948 48.208 194.5 47.056 194.5 45.68C194.5 44.304 194.948 43.152 195.844 42.224C196.74 41.296 197.892 40.832 199.3 40.832C200.676 40.832 201.812 41.296 202.708 42.224C203.604 43.152 204.052 44.304 204.052 45.68C204.052 47.056 203.604 48.208 202.708 49.136C201.812 50.064 200.676 50.528 199.3 50.528Z" fill="#00E5FF"/>
<defs>
<linearGradient id="paint0_linear_3_160" x1="3.03491" y1="-3.25001" x2="57.4535" y2="-3.25001" gradientUnits="userSpaceOnUse">
<stop stop-color="#6366F1"/>
<stop offset="1" stop-color="#00E5FF"/>
</linearGradient>
<linearGradient id="paint1_linear_3_160" x1="3.03491" y1="-3.25001" x2="57.4535" y2="-3.25001" gradientUnits="userSpaceOnUse">
<stop stop-color="#6366F1"/>
<stop offset="1" stop-color="#00E5FF"/>
</linearGradient>
</defs>
</svg>
