<svg width="192" height="65" viewBox="0 0 192 65" fill="none" xmlns="http://www.w3.org/2000/svg">
<path d="M24.3373 17.4317L28.4997 21.5941L32.6621 17.4317H24.3373Z" fill="#00E5FF"/>
<path d="M32.6627 47.5684H24.3379L28.5003 43.406L32.6627 47.5684Z" fill="#00E5FF"/>
<path fill-rule="evenodd" clip-rule="evenodd" d="M28.4997 24.495L36.4918 32.4865L28.4997 40.4786L35.4925 47.4708L42.985 39.9787L50.4775 32.4865L35.4925 17.5022L28.4997 24.495Z" fill="#F3F4F6"/>
<path d="M20.5082 32.4865L28.4997 24.495L21.5068 17.5022L6.52246 32.4865L21.5068 47.4708L28.4997 40.4786L20.5082 32.4865Z" fill="#F3F4F6"/>
<path d="M76.1602 20.8067C77.9841 20.8067 79.6484 21.1108 81.1523 21.7188C82.6562 22.3268 84.0324 23.2383 85.2803 24.4542L80 29.7344C79.5201 29.2546 78.9601 28.9028 78.3203 28.6788C77.7123 28.4228 76.9921 28.295 76.1602 28.295C75.2642 28.295 74.4479 28.503 73.7119 28.919C73.008 29.303 72.4323 29.8469 71.9844 30.5508C71.5684 31.2548 71.3604 32.1028 71.3604 33.0948C71.3604 34.0547 71.5684 34.9028 71.9844 35.6387C72.4323 36.3426 73.0081 36.9025 73.7119 37.3184C74.4479 37.7344 75.2642 37.9424 76.1602 37.9424C77.056 37.9424 77.8239 37.7987 78.4639 37.5108C79.1037 37.2229 79.6636 36.8066 80.1436 36.2628L85.4717 41.543C84.1598 42.8228 82.736 43.783 81.2002 44.4229C79.6963 45.0629 77.9843 45.3828 76.0645 45.3829C73.5685 45.3829 71.3119 44.8549 69.2959 43.7989C67.3119 42.7429 65.7438 41.2867 64.5918 39.4307C63.4398 37.5747 62.8643 35.4786 62.8643 33.1426C62.8643 30.7747 63.4399 28.6627 64.5918 26.8067C65.7758 24.9508 67.3598 23.4945 69.3438 22.4385C71.3597 21.3505 73.6322 20.8067 76.1602 20.8067Z" fill="#F3F4F6"/>
<path fill-rule="evenodd" clip-rule="evenodd" d="M162.498 20.8067C164.866 20.8067 166.962 21.3188 168.786 22.3428C170.642 23.3348 172.082 24.7267 173.106 26.5186C174.162 28.2786 174.69 30.2946 174.69 32.5665C174.69 33.0465 174.658 33.5427 174.594 34.0547C174.562 34.5347 174.466 35.0945 174.306 35.7344L157.841 35.8096C157.924 36.0682 158.02 36.3154 158.13 36.5508C158.578 37.4786 159.218 38.1822 160.05 38.6622C160.882 39.1422 161.906 39.3829 163.122 39.3829C164.274 39.3829 165.282 39.1907 166.146 38.8067C167.042 38.4227 167.842 37.8303 168.546 37.0303L172.914 41.3985C171.762 42.7104 170.354 43.7021 168.69 44.3741C167.058 45.0461 165.202 45.3829 163.122 45.3829C160.498 45.3829 158.178 44.8707 156.162 43.8467C154.146 42.7907 152.562 41.3346 151.41 39.4786C150.258 37.6226 149.683 35.4947 149.683 33.0948C149.683 30.7268 150.242 28.6307 151.362 26.8067C152.482 24.9508 154.002 23.4945 155.922 22.4385C157.874 21.3506 160.066 20.8067 162.498 20.8067ZM162.594 26.8067C161.538 26.8068 160.626 27.0625 159.858 27.5743C159.09 28.0863 158.498 28.8065 158.082 29.7344C157.985 29.9519 157.9 30.1804 157.825 30.419L166.967 30.3438C166.886 30.0191 166.789 29.7194 166.674 29.4464C166.322 28.5825 165.81 27.9265 165.138 27.4786C164.466 27.0307 163.618 26.8067 162.594 26.8067Z" fill="#F3F4F6"/>
<path fill-rule="evenodd" clip-rule="evenodd" d="M115.704 20.9024C117.176 20.9024 118.52 21.1749 119.735 21.7188C120.495 22.0386 121.167 22.4459 121.752 22.9405V21.3829H129.96V44.8546H121.752V43.2735C121.167 43.7632 120.495 44.1788 119.735 44.5186C118.52 45.0625 117.176 45.335 115.704 45.335C113.528 45.335 111.592 44.807 109.896 43.751C108.2 42.6951 106.872 41.2546 105.912 39.4307C104.952 37.5747 104.472 35.4786 104.472 33.1426C104.472 30.7746 104.952 28.6627 105.912 26.8067C106.872 24.9508 108.2 23.5104 109.896 22.4864C111.592 21.4304 113.528 20.9024 115.704 20.9024ZM117.527 28.3428C116.632 28.3429 115.832 28.5509 115.128 28.9669C114.456 29.3828 113.912 29.9585 113.496 30.6944C113.112 31.3984 112.92 32.1988 112.92 33.0948C112.92 34.0227 113.112 34.8549 113.496 35.5909C113.88 36.2947 114.424 36.8546 115.128 37.2706C115.832 37.6865 116.616 37.8945 117.479 37.8946C118.855 37.8946 119.96 37.4468 120.792 36.5508C121.656 35.6549 122.088 34.5027 122.088 33.0948C122.088 32.1668 121.896 31.3505 121.512 30.6465C121.128 29.9426 120.584 29.3828 119.88 28.9669C119.208 28.5509 118.423 28.3428 117.527 28.3428Z" fill="#F3F4F6"/>
<path d="M101.359 20.9024C102.479 20.9024 103.439 21.0471 104.239 21.335C105.071 21.623 105.775 22.0709 106.351 22.6788L101.503 29.1583C101.247 28.8703 100.878 28.6464 100.398 28.4864C99.9506 28.2946 99.4389 28.1983 98.8633 28.1983C97.7755 28.1983 96.9273 28.5344 96.3193 29.2061C95.7113 29.8461 95.4072 30.807 95.4072 32.087V44.8546H87.0547V21.3829H95.4072V22.879C96.9369 21.5623 98.9205 20.9024 101.359 20.9024Z" fill="#F3F4F6"/>
<path d="M144.962 21.3829H150.146V28.3428H144.962V44.8546H136.609V28.3428H131.426V21.3829H136.609V11.6866H144.962V21.3829Z" fill="#F3F4F6"/>
<path d="M181.49 45.3825C180.082 45.3825 178.93 44.9185 178.034 43.9905C177.138 43.0625 176.69 41.9105 176.69 40.5345C176.69 39.1585 177.138 38.0065 178.034 37.0785C178.93 36.1505 180.082 35.6865 181.49 35.6865C182.866 35.6865 184.002 36.1505 184.898 37.0785C185.794 38.0065 186.242 39.1585 186.242 40.5345C186.242 41.9105 185.794 43.0625 184.898 43.9905C184.002 44.9185 182.866 45.3825 181.49 45.3825Z" fill="#00E5FF"/>
</svg>
