<svg width="207" height="65" viewBox="0 0 207 65" fill="none" xmlns="http://www.w3.org/2000/svg">
<g clip-path="url(#clip0_8_3)">
<path d="M-0.680664 34.25L20.9193 55.85L30.9993 45.77L19.4793 34.25L30.9993 22.73L20.9193 12.65L-0.680664 34.25Z" fill="white"/>
<path d="M62.6793 34.25L41.0793 12.65L30.9993 22.73L42.5193 34.25L30.9993 45.77L41.0793 55.85L62.6793 34.25Z" fill="white"/>
<path d="M30.9995 50.488C27.9619 50.488 25.4995 52.9505 25.4995 55.988L36.4995 55.988C36.4995 52.9505 34.0371 50.488 30.9995 50.488Z" fill="#D9D9D9"/>
<path d="M30.9995 50.488C27.9619 50.488 25.4995 52.9505 25.4995 55.988L36.4995 55.988C36.4995 52.9505 34.0371 50.488 30.9995 50.488Z" fill="url(#paint0_linear_8_3)"/>
<path d="M30.9995 50.488C27.9619 50.488 25.4995 52.9505 25.4995 55.988L36.4995 55.988C36.4995 52.9505 34.0371 50.488 30.9995 50.488Z" fill="#00E5FF"/>
<path d="M30.9663 18.3425L36.9663 12.3425L24.9663 12.3425L30.9663 18.3425Z" fill="url(#paint1_linear_8_3)"/>
<path d="M30.9663 18.3425L36.9663 12.3425L24.9663 12.3425L30.9663 18.3425Z" fill="#00E5FF"/>
</g>
<path d="M92.1602 24.772C93.9841 24.772 95.6484 25.0761 97.1523 25.6841C98.6562 26.2921 100.032 27.2036 101.28 28.4194L96 33.6997C95.5201 33.2198 94.9601 32.868 94.3203 32.644C93.7123 32.3881 92.9921 32.2603 92.1602 32.2603C91.2642 32.2603 90.4479 32.4683 89.7119 32.8843C89.008 33.2683 88.4323 33.8122 87.9844 34.5161C87.5684 35.2201 87.3604 36.0681 87.3604 37.0601C87.3604 38.02 87.5684 38.8681 87.9844 39.604C88.4323 40.3078 89.0081 40.8678 89.7119 41.2837C90.4479 41.6997 91.2642 41.9077 92.1602 41.9077C93.056 41.9077 93.8239 41.764 94.4639 41.4761C95.1037 41.1881 95.6636 40.7719 96.1436 40.228L101.472 45.5083C100.16 46.7881 98.736 47.7483 97.2002 48.3882C95.6963 49.0281 93.9843 49.3481 92.0645 49.3481C89.5685 49.3481 87.3119 48.8201 85.2959 47.7642C83.3119 46.7082 81.7438 45.252 80.5918 43.396C79.4398 41.54 78.8643 39.4439 78.8643 37.1079C78.8643 34.74 79.4399 32.6279 80.5918 30.772C81.7758 28.916 83.3598 27.4598 85.3438 26.4038C87.3597 25.3158 89.6322 24.772 92.1602 24.772Z" fill="#F3F4F6"/>
<path fill-rule="evenodd" clip-rule="evenodd" d="M178.498 24.772C180.866 24.772 182.962 25.2841 184.786 26.3081C186.642 27.3001 188.082 28.6919 189.106 30.4839C190.162 32.2438 190.69 34.2599 190.69 36.5317C190.69 37.0117 190.658 37.508 190.594 38.02C190.562 38.5 190.466 39.0598 190.306 39.6997L173.841 39.7749C173.924 40.0334 174.02 40.2807 174.13 40.5161C174.578 41.4439 175.218 42.1475 176.05 42.6274C176.882 43.1074 177.906 43.3481 179.122 43.3481C180.274 43.3481 181.282 43.156 182.146 42.772C183.042 42.388 183.842 41.7955 184.546 40.9956L188.914 45.3638C187.762 46.6757 186.354 47.6674 184.69 48.3394C183.058 49.0114 181.202 49.3481 179.122 49.3481C176.498 49.3481 174.178 48.836 172.162 47.812C170.146 46.756 168.562 45.2998 167.41 43.4438C166.258 41.5879 165.683 39.46 165.683 37.0601C165.683 34.6921 166.242 32.596 167.362 30.772C168.482 28.916 170.002 27.4598 171.922 26.4038C173.874 25.3158 176.066 24.772 178.498 24.772ZM178.594 30.772C177.538 30.772 176.626 31.0277 175.858 31.5396C175.09 32.0515 174.498 32.7717 174.082 33.6997C173.985 33.9172 173.9 34.1457 173.825 34.3843L182.967 34.3091C182.886 33.9843 182.789 33.6847 182.674 33.4116C182.322 32.5478 181.81 31.8918 181.138 31.4438C180.466 30.996 179.618 30.772 178.594 30.772Z" fill="#F3F4F6"/>
<path fill-rule="evenodd" clip-rule="evenodd" d="M131.704 24.8677C133.176 24.8677 134.52 25.1402 135.735 25.6841C136.495 26.0039 137.167 26.4112 137.752 26.9058V25.3481H145.96V48.8198H137.752V47.2388C137.167 47.7285 136.495 48.144 135.735 48.4839C134.52 49.0277 133.176 49.3003 131.704 49.3003C129.528 49.3003 127.592 48.7723 125.896 47.7163C124.2 46.6604 122.872 45.2199 121.912 43.396C120.952 41.54 120.472 39.4439 120.472 37.1079C120.472 34.7399 120.952 32.628 121.912 30.772C122.872 28.916 124.2 27.4757 125.896 26.4517C127.592 25.3957 129.528 24.8677 131.704 24.8677ZM133.527 32.3081C132.632 32.3082 131.832 32.5162 131.128 32.9321C130.456 33.3481 129.912 33.9238 129.496 34.6597C129.112 35.3637 128.92 36.1641 128.92 37.0601C128.92 37.988 129.112 38.8202 129.496 39.5562C129.88 40.26 130.424 40.8199 131.128 41.2358C131.832 41.6517 132.616 41.8598 133.479 41.8599C134.855 41.8599 135.96 41.4121 136.792 40.5161C137.656 39.6202 138.088 38.468 138.088 37.0601C138.088 36.1321 137.896 35.3158 137.512 34.6118C137.128 33.9079 136.584 33.3481 135.88 32.9321C135.208 32.5161 134.423 32.3081 133.527 32.3081Z" fill="#F3F4F6"/>
<path d="M117.359 24.8677C118.479 24.8677 119.439 25.0123 120.239 25.3003C121.071 25.5883 121.775 26.0362 122.351 26.644L117.503 33.1235C117.247 32.8356 116.878 32.6116 116.398 32.4517C115.951 32.2598 115.439 32.1636 114.863 32.1636C113.776 32.1636 112.927 32.4997 112.319 33.1714C111.711 33.8114 111.407 34.7722 111.407 36.0522V48.8198H103.055V25.3481H111.407V26.8442C112.937 25.5275 114.921 24.8677 117.359 24.8677Z" fill="#F3F4F6"/>
<path d="M160.962 25.3481H166.146V32.3081H160.962V48.8198H152.609V32.3081H147.426V25.3481H152.609V15.6519H160.962V25.3481Z" fill="#F3F4F6"/>
<path d="M197.49 49.3478C196.082 49.3478 194.93 48.8838 194.034 47.9558C193.138 47.0278 192.69 45.8758 192.69 44.4998C192.69 43.1238 193.138 41.9718 194.034 41.0438C194.93 40.1158 196.082 39.6518 197.49 39.6518C198.866 39.6518 200.002 40.1158 200.898 41.0438C201.794 41.9718 202.242 43.1238 202.242 44.4998C202.242 45.8758 201.794 47.0278 200.898 47.9558C200.002 48.8838 198.866 49.3478 197.49 49.3478Z" fill="#00E5FF"/>
<defs>
<linearGradient id="paint0_linear_8_3" x1="38.4311" y1="52.2231" x2="32.8885" y2="57.7657" gradientUnits="userSpaceOnUse">
<stop stop-color="#6366F1"/>
<stop offset="1" stop-color="#00E5FF"/>
</linearGradient>
<linearGradient id="paint1_linear_8_3" x1="39.0735" y1="14.2353" x2="33.027" y2="20.2818" gradientUnits="userSpaceOnUse">
<stop stop-color="#6366F1"/>
<stop offset="1" stop-color="#00E5FF"/>
</linearGradient>
<clipPath id="clip0_8_3">
<rect width="62" height="65" fill="white"/>
</clipPath>
</defs>
</svg>
